<svg xmlns="http://www.w3.org/2000/svg" width="272" height="69" viewBox="0 0 272 69"><title>icon-contentblocks</title><path fill="#C8CDD8" d="M18 30h2v-2h4v-8h-8v14h2v-4zm0-8h4v4h-4v-4zm4 10v-2h-2v2h2zm2 2v-2h-2v2h2zm0-18h-6V6h-2v12h8v-2zM0 0v60h24.267l3.91-9 6.227 4 4.83-10L48 41V0H0zm46 39.714l-8.254 3.766-4.162 8.617-6.306-4.05L22.955 58H2V2h44v37.714zM12 32H8V22h4v-2H6v14h6v-2zm2 0V22h-2v10h2zM9 18h2V8h3V6H6v2h3v10z"/><path fill="#D5D3BD" d="M67 62h18v2H67z"/><path fill="#D4D2BD" d="M77 0h-2v6h2V0zM48.11 37.01l.618 1.902 5.706-1.854-.618-1.902-5.706 1.854zm0-16.02l5.706 1.854.618-1.902-5.706-1.854-.618 1.902zm55.78 0l-.618-1.902-5.706 1.854.618 1.902 5.706-1.854zM93.855 6.126L92.237 4.95 88.71 9.805l1.618 1.176 3.527-4.854zM63.29 9.806L59.763 4.95l-1.618 1.177 3.527 4.854 1.618-1.175zM76 9c-11.046 0-20 8.954-20 20 0 7.805 4.48 14.547 11 17.843V64h18V46.843C91.52 43.547 96 36.805 96 29c0-11.046-8.954-20-20-20zm7 53H69v-3h14v3zm-14-5v-3h6v3h-6zm14 0h-6v-3h6v3zm0-5H69v-4.284c2.182.816 4.533 1.284 7 1.284s4.818-.468 7-1.284V52zm0-6.412c-2.152.91-4.517 1.412-7 1.412s-4.848-.503-7-1.412v-13.51l7 3.11 7-3.11v13.51zm2-1.016V29l-9 4-9-4v15.572c-5.375-3.114-9-8.914-9-15.572 0-9.94 8.06-18 18-18s18 8.06 18 18c0 6.66-3.625 12.46-9 15.572zm12.565-7.514l5.706 1.854.62-1.902-5.707-1.854-.618 1.902zM71 69h10v-2H71v2zM58.145 51.874l1.618 1.176 3.527-4.854-1.618-1.176-3.527 4.854zm30.565-3.68l3.527 4.855 1.618-1.177-3.527-4.854-1.618 1.175z"/><path fill="#E4AEA0" d="M133 0h-2v6h2V0zm26.89 20.99l-.618-1.902-5.706 1.854.618 1.902 5.706-1.854zm-40.6-11.185l-3.527-4.854-1.618 1.177 3.527 4.854 1.618-1.175zm30.565-3.68l-1.618-1.175-3.527 4.854 1.618 1.176 3.527-4.854zm3.71 30.933l5.706 1.854.62-1.902-5.707-1.854-.618 1.902zM152 28.998C152 17.962 143.046 9 132 9c-11.048 0-20 8.954-20 20v31h-4v9h48v-9h-4V29zm-38 0C114 19.06 122.057 11 132 11c9.94 0 18 8.063 18 18v22h-13v-3h-10v3h-13V29zM135 50v4h-6v-4h6zm-21 3h13v3h10v-3h13v7h-36v-7zm40 9v5h-44v-5h44zm-17-41h-10v24h10V21zm-2 22h-6V23h6v20zm-24.565-22.058l-5.706-1.854-.62 1.902 5.707 1.854.618-1.902zm-.618 14.214l-5.706 1.854.62 1.902 5.705-1.854-.618-1.902z"/><circle fill="none" cx="184" cy="18" r="5"/><path fill="none" d="M190 6h-13c.262-.677.454-1.355.598-2H162v50c0 3.314 2.686 6 6 6s6-2.686 6-6h32V4h-15.546c-.49 1.133-.454 2-.454 2zm1 42h-14V28h14v20zm-7-23c-3.866 0-7-3.134-7-7s3.134-7 7-7 7 3.134 7 7-3.134 7-7 7z"/><path fill="none" d="M179 30h10v16h-10zM173.292 60H208c2.612 0 4.834-1.67 5.658-4h-37.91c-.405 1.572-1.275 2.958-2.456 4z"/><path fill="#A7CAD6" d="M184 25c3.866 0 7-3.134 7-7s-3.134-7-7-7-7 3.134-7 7 3.134 7 7 7zm0-12c2.76 0 5 2.24 5 5s-2.24 5-5 5-5-2.24-5-5 2.24-5 5-5zm7 15h-14v20h14V28zm-2 18h-10V30h10v16zm19 8V2h-16.72c.203-.677.48-1.524.72-2h-14s.04.81-.08 2H160v52.135h.007c.072 4.324 3.57 7.81 7.9 7.86V62H208c2.843 0 5.34-1.483 6.758-3.717.442-.696.78-1.464.99-2.283.165-.64.252-1.31.252-2h-8zM179.93 2h9.265l-.053.187c-.394.642-.653 1.262-.823 1.813h-8.677c.144-.73.233-1.41.286-2zM168 60c-3.314 0-6-2.686-6-6V4h15.598c-.144.645-.336 1.323-.598 2h13s-.037-.867.454-2H206v50h-32c0 3.314-2.686 6-6 6zm40 0h-34.708c1.18-1.042 2.05-2.428 2.456-4h37.91c-.824 2.33-3.046 4-5.658 4z"/><path fill="#ACCCC2" d="M235 17c2.76 0 5 2.24 5 5h2c0-3.866-3.134-7-7-7s-7 3.134-7 7h2c0-2.76 2.24-5 5-5zm18 0c2.76 0 5 2.24 5 5h2c0-3.866-3.134-7-7-7s-7 3.134-7 7h2c0-2.76 2.24-5 5-5zm-9-17c-15.464 0-28 12.536-28 28s12.536 28 28 28 28-12.536 28-28-12.536-28-28-28zm0 54c-14.336 0-26-11.664-26-26s11.664-26 26-26 26 11.664 26 26-11.664 26-26 26zm-21-26c0 11.598 9.402 21 21 21s21-9.402 21-21h-42zm21 19c-9.8 0-17.893-7.46-18.896-17h37.79c-1 9.54-9.093 17-18.894 17z"/></svg>