<svg width="36" height="12" viewBox="0 0 36 12" xmlns="http://www.w3.org/2000/svg"><title>icon-meta</title><g fill="#838B9F" fill-rule="evenodd"><path d="M30.014 9c1.83.026 3.14-.597 4.07-1.66.322-.365.574-.758.763-1.15.11-.226.17-.392.19-.464l.007.567c-.023-.073-.088-.24-.203-.467-.197-.393-.46-.788-.792-1.155-.945-1.045-2.253-1.668-4.05-1.67-1.797-.002-3.104.62-4.05 1.67-.33.367-.592.762-.79 1.155-.114.227-.18.394-.202.467l.003-.575c.02.07.083.235.196.46.196.39.458.783.792 1.15.937 1.024 2.25 1.647 4.066 1.673zM30 10c-4.84-.07-6-4-6-4s1.222-4.005 6-4c4.778.005 6 4 6 4s-1.16 4.07-6 4z"/><path d="M31.912 5.41c.057.187.088.385.088.59 0 1.105-.895 2-2 2s-2-.895-2-2 .895-2 2-2c.205 0 .403.03.59.088-.348.157-.59.506-.59.912 0 .552.448 1 1 1 .406 0 .755-.242.912-.59zM2 1.995v8.01c0-.008.003-.005-.005-.005h8.01c-.008 0-.005-.003-.005.005v-8.01c0 .008-.003.005.005.005h-8.01C2.003 2 2 2.003 2 1.995zm-1 0c0-.55.456-.995.995-.995h8.01c.55 0 .995.456.995.995v8.01c0 .55-.456.995-.995.995h-8.01c-.55 0-.995-.456-.995-.995v-8.01z"/><path d="M2 4h8v1H2zM3 0h1v3H3zM8 0h1v3H8zM13 2h9.997v1H13V2zm0 3h9.997v1H13V5zm0 3h7v1h-7V8z"/></g></svg>