<svg width="80" height="40" viewBox="0 0 80 40" xmlns="http://www.w3.org/2000/svg"><title>icon-share</title><g fill="none" fill-rule="evenodd"><path d="M17 1H3c-1.1 0-2 .9-2 2v14c0 1.1.9 2 2 2h7v-7H8V9.525h2v-2.05c0-2.164 1.212-3.684 3.766-3.684l1.803.003v2.605H14.37c-.994 0-1.372.746-1.372 1.438v1.69h2.568L15 12h-2v7h4c1.1 0 2-.9 2-2V3c0-1.1-.9-2-2-2z" fill="#3B5998"/><path d="M37.316 6.246c.008.162.01.326.01.488 0 4.99-3.796 10.742-10.74 10.742-2.132 0-4.115-.625-5.786-1.697.296.034.596.052.9.052 1.77 0 3.397-.604 4.688-1.615-1.65-.03-3.046-1.12-3.526-2.62.23.042.467.065.71.065.345 0 .68-.045.995-.13-1.727-.35-3.028-1.874-3.028-3.704V7.78c.508.284 1.09.454 1.71.474-1.014-.678-1.68-1.832-1.68-3.143 0-.69.185-1.34.51-1.897C23.943 5.498 26.726 7 29.863 7.158c-.064-.277-.097-.564-.097-.86 0-2.085 1.69-3.774 3.774-3.774 1.085 0 2.066.457 2.755 1.19.86-.17 1.667-.483 2.397-.915-.282.88-.88 1.62-1.66 2.087.764-.092 1.49-.293 2.168-.594-.506.758-1.146 1.422-1.884 1.953z" fill="#55ACEE"/><path d="M41.574 5.286l7.5 4.03c.252.134.578.198.906.198.328 0 .654-.064.906-.2.252-.134 7.012-3.766 7.5-4.028.49-.263.95-1.286.054-1.286H41.52c-.896 0-.434 1.023.054 1.286zm17.04 2.203c-.556.288-7.388 3.848-7.728 4.026-.34.178-.578.2-.906.2-.328 0-.566-.022-.906-.2-.34-.178-7.133-3.74-7.688-4.028-.39-.204-.386.035-.386.22V15c0 .42.566 1 1 1h16c.434 0 1-.58 1-1V7.708c0-.184.004-.423-.387-.22z" fill="#E9603E"/><path d="M70.37 1c-4.724 0-8.553 3.926-8.553 8.768 0 1.657.448 3.206 1.227 4.528L61.5 19l4.735-1.554c1.226.694 2.635 1.09 4.135 1.09 4.723 0 8.553-3.925 8.553-8.768C78.923 4.926 75.093 1 70.37 1zm0 16.067c-1.447 0-2.793-.444-3.918-1.206l-2.736.898.89-2.71c-.853-1.204-1.357-2.682-1.357-4.28 0-4.025 3.194-7.3 7.12-7.3s7.12 3.275 7.12 7.3-3.194 7.3-7.12 7.3zm4.01-5.306c-.215-.12-1.268-.702-1.465-.785-.198-.082-.342-.125-.496.094-.155.217-.59.705-.724.85-.133.144-.26.157-.475.037-.214-.12-.908-.384-1.714-1.178-.628-.62-1.04-1.37-1.158-1.598-.12-.23 0-.346.112-.453.102-.097.228-.254.342-.38.114-.127.154-.22.232-.365.078-.147.047-.28-.004-.393-.05-.114-.447-1.232-.613-1.687-.165-.455-.35-.387-.477-.392-.127-.005-.272-.03-.418-.035-.145-.006-.384.04-.592.258-.208.216-.792.736-.832 1.837-.04 1.1.703 2.195.806 2.348.104.155 1.42 2.542 3.606 3.524 2.187.98 2.198.682 2.6.66.4-.022 1.31-.492 1.512-1.007.202-.516.218-.964.167-1.06-.052-.094-.196-.156-.41-.276z" fill="#1D9E11"/><path d="M17 21H3c-1.1 0-2 .9-2 2v14c0 1.1.9 2 2 2h7v-7H8v-2.475h2v-2.05c0-2.164 1.212-3.684 3.766-3.684l1.803.003v2.605H14.37c-.994 0-1.372.746-1.372 1.438v1.69h2.568L15 32h-2v7h4c1.1 0 2-.9 2-2V23c0-1.1-.9-2-2-2zM37.316 26.246c.008.162.01.326.01.488 0 4.99-3.796 10.742-10.74 10.742-2.132 0-4.115-.625-5.786-1.697.296.034.596.052.9.052 1.77 0 3.397-.604 4.688-1.615-1.65-.03-3.046-1.12-3.526-2.62.23.042.467.065.71.065.345 0 .68-.045.995-.13-1.727-.35-3.028-1.874-3.028-3.704v-.047c.508.284 1.09.454 1.71.474-1.014-.678-1.68-1.832-1.68-3.143 0-.69.185-1.34.51-1.897 1.862 2.285 4.645 3.787 7.782 3.945-.064-.277-.097-.564-.097-.86 0-2.085 1.69-3.774 3.774-3.774 1.085 0 2.066.457 2.755 1.19.86-.17 1.667-.483 2.397-.915-.282.88-.88 1.62-1.66 2.087.764-.092 1.49-.293 2.168-.594-.506.758-1.146 1.422-1.884 1.953zM41.574 25.286l7.5 4.03c.252.134.578.198.906.198.328 0 .654-.064.906-.2.252-.134 7.012-3.766 7.5-4.028.49-.263.95-1.286.054-1.286H41.52c-.896 0-.434 1.023.054 1.286zm17.04 2.203c-.556.288-7.388 3.848-7.728 4.026-.34.178-.578.2-.906.2-.328 0-.566-.022-.906-.2-.34-.178-7.133-3.74-7.688-4.028-.39-.204-.386.035-.386.22V35c0 .42.566 1 1 1h16c.434 0 1-.58 1-1v-7.292c0-.184.004-.423-.387-.22zM70.37 21c-4.724 0-8.553 3.926-8.553 8.768 0 1.657.448 3.206 1.227 4.528L61.5 39l4.735-1.554c1.226.694 2.635 1.09 4.135 1.09 4.723 0 8.553-3.925 8.553-8.768 0-4.842-3.83-8.768-8.553-8.768zm0 16.067c-1.447 0-2.793-.444-3.918-1.206l-2.736.898.89-2.71c-.853-1.204-1.357-2.682-1.357-4.28 0-4.025 3.194-7.3 7.12-7.3s7.12 3.275 7.12 7.3-3.194 7.3-7.12 7.3zm4.01-5.306c-.215-.12-1.268-.702-1.465-.785-.198-.082-.342-.125-.496.094-.155.217-.59.705-.724.85-.133.144-.26.157-.475.037-.214-.12-.908-.384-1.714-1.178-.628-.62-1.04-1.37-1.158-1.598-.12-.23 0-.346.112-.453.102-.097.228-.254.342-.38.114-.127.154-.22.232-.365.078-.147.047-.28-.004-.393-.05-.114-.447-1.232-.613-1.687-.165-.455-.35-.387-.477-.392-.127-.005-.272-.03-.418-.035-.145-.006-.384.04-.592.258-.208.216-.792.736-.832 1.837-.04 1.1.703 2.195.806 2.348.104.155 1.42 2.542 3.606 3.524 2.187.98 2.198.682 2.6.66.4-.022 1.31-.492 1.512-1.007.202-.516.218-.964.167-1.06-.052-.094-.196-.156-.41-.276z" fill="#FFF"/></g></svg>