<svg width="240" height="40" viewBox="0 0 240 40" xmlns="http://www.w3.org/2000/svg"><title>icon-footer-social</title><g fill="#FFF" fill-rule="evenodd"><path d="M171 14.5c0-1.657 1.334-3 3-3h11c1.657 0 3 1.334 3 3v11c0 1.657-1.334 3-3 3h-11c-1.657 0-3-1.334-3-3v-11zm6 9l6-3.488-6-3.512v7zM25 14.12V11h-2.84c-2.36 0-4.12 2-4.12 4.48v1.72H15v2.96h3.04V29h3.4v-8.84H25V17.2h-3.56v-2.04c0-.6.36-1.04.72-1.04H25zM69.7 14.28c-.68.28-1.4.48-2.16.6.76-.48 1.36-1.2 1.64-2.08-.72.4-1.52.72-2.4.88-.68-.72-1.64-1.16-2.72-1.16-2.12 0-3.8 1.68-3.8 3.76 0 .28.04.6.12.84-3.16-.12-5.92-1.64-7.8-3.92-.32.56-.52 1.2-.52 1.88 0 1.32.68 2.48 1.68 3.16-.6-.04-1.2-.2-1.68-.48v.04c0 1.84 1.28 3.36 3 3.72-.32.08-.64.12-1 .12-.24 0-.48 0-.68-.08.48 1.52 1.88 2.6 3.52 2.64-1.28 1-2.92 1.6-4.68 1.6-.32 0-.64 0-.92-.04 1.68 1.08 3.64 1.68 5.8 1.68 6.92 0 10.72-5.72 10.72-10.72v-.48c.72-.56 1.36-1.2 1.88-1.96zM93 15.56c0 1.52.48 2.6 1.48 3.2.8.52 1.72.6 2.2.6h.28s-.12 1 .6 2h-.04c-1.28 0-5.48.28-5.48 3.72 0 3.52 3.88 3.72 4.64 3.72.04 0 .08-.04.08-.04.04 0 .08.04.16.04.52 0 1.8-.08 3-.68 1.52-.72 2.32-2.04 2.32-3.88 0-1.76-1.2-2.8-2.08-3.56-.52-.48-1-.88-1-1.28s.36-.68.76-1.08c.72-.6 1.36-1.48 1.36-3.16 0-1.44-.2-2.44-1.36-3.04.12-.08.56-.12.76-.12.64-.12 1.56-.2 1.56-.72v-.08h-4.6c-.04 0-4.64.16-4.64 4.36zm7.4 9.04c.12 1.4-1.12 2.44-2.92 2.56-1.84.12-3.32-.68-3.44-2.08-.04-.68.28-1.36.84-1.88.6-.52 1.4-.88 2.28-.92h.32c1.72 0 2.84.96 2.92 2.32zm-1.2-10c.48 1.6-.2 3.24-1.32 3.56-.12.04-.24.04-.36.04-1 0-2-1-2.36-2.36-.2-.8-.16-1.48.04-2.12.24-.64.64-1.08 1.16-1.24.16-.04.28-.04.4-.04 1.2 0 1.96.48 2.44 2.16zm7.76 3.48v-3h-1.88v3h-3v1.88h3v3h1.88v-3h3v-1.88h-3zM145.2 20c0 2.84-2.36 5.2-5.2 5.2-2.88 0-5.2-2.36-5.2-5.2 0-.36.04-.68.08-1h-3.48v6.88c0 1.48 1.2 2.72 2.68 2.72h11.84c1.48 0 2.68-1.24 2.68-2.72V19h-3.52c.08.32.12.64.12 1zm.72-8.6h-11.84c-1.48 0-2.68 1.2-2.68 2.68V17h4.36c.92-1.36 2.48-2.2 4.24-2.2 1.76 0 3.28.84 4.24 2.2h4.36v-2.92c0-1.48-1.2-2.68-2.68-2.68zm1.28 3.32c0 .24-.2.48-.48.48h-1.44c-.24 0-.48-.24-.48-.48v-1.44c0-.28.24-.48.48-.48h1.44c.28 0 .48.2.48.48v1.44zm-4 5.28c0-1.8-1.44-3.2-3.2-3.2-1.76 0-3.2 1.4-3.2 3.2 0 1.76 1.44 3.2 3.2 3.2 1.76 0 3.2-1.44 3.2-3.2zM218.64 23.2c.92.6 1.44 1.2 2.68 1.28 4.48.36 7-4.48 6.36-8.92-.52-3.96-4.48-6-8.68-5.52-3.32.4-6.64 3.08-6.76 6.92-.08 2.32.56 4.08 2.8 4.6.96-1.72-.32-2.08-.52-3.32-.8-5.08 5.84-8.52 9.32-5 2.44 2.44.84 10-3.04 9.2-3.72-.76 1.8-6.76-1.16-7.92-2.4-.96-3.68 2.92-2.56 4.84-.68 3.32-2.12 6.44-1.52 10.64 1.88-1.4 2.52-4.04 3.08-6.8z"/></g></svg>