<?xml version="1.0" encoding="UTF-8" standalone="no"?>
<svg width="48px" height="12px" viewBox="0 0 48 12" version="1.1" xmlns="http://www.w3.org/2000/svg" xmlns:xlink="http://www.w3.org/1999/xlink" xmlns:sketch="http://www.bohemiancoding.com/sketch/ns">
    <!-- Generator: Sketch 3.3.1 (12005) - http://www.bohemiancoding.com/sketch -->
    <title>icon-meta</title>
    <desc>Created with Sketch.</desc>
    <defs></defs>
    <g id="Page-1" stroke="none" stroke-width="1" fill="none" fill-rule="evenodd" sketch:type="MSPage">
        <g id="icon-meta" sketch:type="MSArtboardGroup">
            <g id="meta-views" sketch:type="MSLayerGroup" transform="translate(24.000000, 1.000000)" fill="#838B9F">
                <path d="M6.01427763,8.00010193 L6.01427763,8.00010193 C7.84364818,8.02622366 9.15322894,7.40326237 10.0852856,6.34092464 C10.4059551,5.97543254 10.6579858,5.58199056 10.8470092,5.19041305 C10.9563834,4.96383537 11.0176672,4.79818933 11.0383968,4.72555626 L11.0437612,5.29258733 C11.0214008,5.21950858 10.9563538,5.05333368 10.8414895,4.82605185 C10.64286,4.4330239 10.3801898,4.03797594 10.0480821,3.67067876 C9.10294465,2.62539654 7.79546466,2.00201908 5.99887581,1.99999937 C4.20138024,1.99797864 2.89409919,2.62137765 1.94932091,3.66952711 C1.61826294,4.03680717 1.35636298,4.43189582 1.1582817,4.82499464 C1.04370499,5.05237588 0.978796305,5.21866725 0.956458133,5.29186956 L0.959022784,4.71667104 C0.979978345,4.78760223 1.04292944,4.9516382 1.15587243,5.17683246 C1.35175398,5.56739587 1.61354812,5.96023451 1.94768141,6.32591211 C2.88477424,7.35147245 4.19715409,7.97415507 6.01427763,8.00010193 L6.01427763,8.00010193 Z M6,9 L6,9 C1.16132812,8.9309082 0,5 0,5 C0,5 1.22226562,0.994628906 6,1 C10.7777344,1.00537109 12,5 12,5 C12,5 10.8386719,9.0690918 6,9 L6,9 Z" id="Shape" sketch:type="MSShapeGroup"></path>
                <path d="M7.91187815,4.41106095 C7.96916413,4.59724802 8,4.79502296 8,5 C8,6.1045695 7.1045695,7 6,7 C4.8954305,7 4,6.1045695 4,5 C4,3.8954305 4.8954305,3 6,3 C6.20497704,3 6.40275198,3.03083587 6.58893905,3.08812185 C6.24167647,3.24490777 6,3.5942306 6,4 C6,4.55228475 6.44771525,5 7,5 C7.4057694,5 7.75509223,4.75832353 7.91187815,4.41106095 L7.91187815,4.41106095 Z" id="Oval-20" sketch:type="MSShapeGroup"></path>
            </g>
            <g id="meta-views-white" sketch:type="MSLayerGroup" transform="translate(36.000000, 1.000000)" fill="#FFFFFF">
                <path d="M6.01427763,8.00010193 L6.01427763,8.00010193 C7.84364818,8.02622366 9.15322894,7.40326237 10.0852856,6.34092464 C10.4059551,5.97543254 10.6579858,5.58199056 10.8470092,5.19041305 C10.9563834,4.96383537 11.0176672,4.79818933 11.0383968,4.72555626 L11.0437612,5.29258733 C11.0214008,5.21950858 10.9563538,5.05333368 10.8414895,4.82605185 C10.64286,4.4330239 10.3801898,4.03797594 10.0480821,3.67067876 C9.10294465,2.62539654 7.79546466,2.00201908 5.99887581,1.99999937 C4.20138024,1.99797864 2.89409919,2.62137765 1.94932091,3.66952711 C1.61826294,4.03680717 1.35636298,4.43189582 1.1582817,4.82499464 C1.04370499,5.05237588 0.978796305,5.21866725 0.956458133,5.29186956 L0.959022784,4.71667104 C0.979978345,4.78760223 1.04292944,4.9516382 1.15587243,5.17683246 C1.35175398,5.56739587 1.61354812,5.96023451 1.94768141,6.32591211 C2.88477424,7.35147245 4.19715409,7.97415507 6.01427763,8.00010193 L6.01427763,8.00010193 Z M6,9 L6,9 C1.16132812,8.9309082 0,5 0,5 C0,5 1.22226562,0.994628906 6,1 C10.7777344,1.00537109 12,5 12,5 C12,5 10.8386719,9.0690918 6,9 L6,9 Z" id="Shape" sketch:type="MSShapeGroup"></path>
                <path d="M7.91187815,4.41106095 C7.96916413,4.59724802 8,4.79502296 8,5 C8,6.1045695 7.1045695,7 6,7 C4.8954305,7 4,6.1045695 4,5 C4,3.8954305 4.8954305,3 6,3 C6.20497704,3 6.40275198,3.03083587 6.58893905,3.08812185 C6.24167647,3.24490777 6,3.5942306 6,4 C6,4.55228475 6.44771525,5 7,5 C7.4057694,5 7.75509223,4.75832353 7.91187815,4.41106095 L7.91187815,4.41106095 Z" id="Oval-20" sketch:type="MSShapeGroup"></path>
            </g>
            <g id="meta-calendar" sketch:type="MSLayerGroup" transform="translate(1.000000, 0.000000)" fill="#838B9F">
                <path d="M1,1.99539757 L1,1.99539757 L1,10.0046024 C1,9.99705154 1.00292812,10 0.995397568,10 L9.00460243,10 C8.99705154,10 9,9.99707188 9,10.0046024 L9,1.99539757 C9,2.00294846 8.99707188,2 9.00460243,2 L0.995397568,2 C1.00294846,2 1,2.00292812 1,1.99539757 L1,1.99539757 Z M0,1.99539757 C0,1.44565467 0.455664396,1 0.995397568,1 L9.00460243,1 C9.55434533,1 10,1.4556644 10,1.99539757 L10,10.0046024 C10,10.5543453 9.5443356,11 9.00460243,11 L0.995397568,11 C0.445654671,11 0,10.5443356 0,10.0046024 L0,1.99539757 L0,1.99539757 Z" id="meta-" sketch:type="MSShapeGroup"></path>
                <rect id="Rectangle-323" sketch:type="MSShapeGroup" x="1" y="4" width="8" height="1"></rect>
                <rect id="Rectangle-317" sketch:type="MSShapeGroup" x="2" y="0" width="1" height="3"></rect>
                <rect id="Rectangle-321" sketch:type="MSShapeGroup" x="7" y="0" width="1" height="3"></rect>
            </g>
            <path d="M13,2 L22.996582,2 L22.996582,3 L13,3 L13,2 Z M13,5 L22.996582,5 L22.996582,6 L13,6 L13,5 Z M13,8 L20,8 L20,9 L13,9 L13,8 Z" id="meta-category" fill="#838B9F" sketch:type="MSShapeGroup"></path>
        </g>
    </g>
</svg>