<?xml version="1.0" encoding="UTF-8" standalone="no"?>
<svg width="295px" height="52px" viewBox="0 0 295 52" version="1.1" xmlns="http://www.w3.org/2000/svg" xmlns:xlink="http://www.w3.org/1999/xlink" xmlns:sketch="http://www.bohemiancoding.com/sketch/ns">
    <!-- Generator: Sketch 3.3.2 (12043) - http://www.bohemiancoding.com/sketch -->
    <title>infographic-header</title>
    <desc>Created with Sketch.</desc>
    <defs></defs>
    <g id="Page-1" stroke="none" stroke-width="1" fill="none" fill-rule="evenodd" sketch:type="MSPage">
        <g id="infographic-header" sketch:type="MSArtboardGroup">
            <g id="Group" sketch:type="MSLayerGroup" transform="translate(14.000000, 6.000000)">
                <rect id="Rectangle-430" fill="#2DBAC5" sketch:type="MSShapeGroup" x="17.5" y="3" width="234" height="40"></rect>
                <path d="M20.5,1 L20.5,1 L21.5,0 L21.5,46 L20.5,45 L248.5,45 L247.5,46 L247.5,0 L248.5,1 L20.5,1 Z M20.5,0 L248.5,0 L248.5,46 L20.5,46 L20.5,0 L20.5,0 Z" id="Shape" fill="#2C96B8" sketch:type="MSShapeGroup"></path>
                <path d="M30.5,20 L0.791343375,20 L0.791343375,21 L30.5,21 L30.5,20 L30.5,20 Z" id="Shape" fill="#2C96B9" sketch:type="MSShapeGroup"></path>
                <path d="M30.5,26 L12.5,26 L12.5,27 L30.5,27 L30.5,26 L30.5,26 Z" id="Shape" fill="#BE9BCB" sketch:type="MSShapeGroup"></path>
                <path d="M30.5,23 L6.5,23 L6.5,24 L30.5,24 L30.5,23 L30.5,23 Z" id="Shape" fill="#E15A9A" sketch:type="MSShapeGroup"></path>
                <path d="M53.098,35 L53.098,14.98 L49.094,14.98 L49.094,35 L53.098,35 L53.098,35 Z M61.61,24.108 L71.746,35.42 L72.81,35.42 L72.81,15.008 L68.778,15.008 L68.778,26.32 L58.67,14.56 L57.606,14.56 L57.606,35 L61.61,35 L61.61,24.108 Z M87.314,18.984 L87.314,14.98 L77.318,14.98 L77.318,35 L81.322,35 L81.322,26.992 L86.418,26.992 L86.418,22.988 L81.322,22.988 L81.322,18.984 L87.314,18.984 Z M100.25,35.28 C114.026,35.28 114.026,14.644 100.25,14.644 C86.474,14.644 86.474,35.28 100.25,35.28 L100.25,35.28 Z M100.25,31.136 C92.242,31.136 92.242,18.76 100.25,18.76 C108.258,18.76 108.258,31.136 100.25,31.136 L100.25,31.136 Z M128.782,33.768 L128.782,24.976 L124.722,24.976 L124.722,30.996 C124.358,31.052 123.966,31.108 123.602,31.108 C115.874,31.108 115.51,19.152 123.602,18.872 C125.73,18.816 127.018,19.264 127.802,19.6 L128.278,15.54 C127.914,15.428 125.982,14.728 123.602,14.812 C109.714,15.316 110.386,35.112 123.602,35.112 C125.506,35.112 127.242,34.636 128.782,33.768 L128.782,33.768 Z M147.682,35 L143.034,26.74 C148.914,25.032 148.214,14.98 141.074,14.98 L133.178,14.98 L133.178,35 L137.182,35 L137.182,27.356 L139.114,27.356 L143.146,35 L147.682,35 Z M137.182,18.984 L140.71,18.984 C143.426,18.984 143.426,23.464 140.71,23.464 L137.182,23.464 L137.182,18.984 Z M148.55,35 L153.086,35 L153.87,32.844 L160.506,32.844 L161.318,35 L165.826,35 L157.398,14.252 L156.978,14.252 L148.55,35 L148.55,35 Z M155.326,29.092 L157.202,23.884 L159.022,29.092 L155.326,29.092 L155.326,29.092 Z M172.63,35 L172.63,27.356 L176.494,27.356 C184.25,27.356 184.278,15.008 176.494,15.008 L168.626,15.008 L168.626,35 L172.63,35 L172.63,35 Z M172.63,23.464 L172.63,18.984 L176.158,18.984 C178.846,18.984 178.846,23.464 176.158,23.464 L172.63,23.464 L172.63,23.464 Z M199.51,35 L199.51,14.98 L195.506,14.98 L195.506,22.988 L189.514,22.988 L189.514,14.98 L185.51,14.98 L185.51,35 L189.514,35 L189.514,26.992 L195.506,26.992 L195.506,35 L199.51,35 L199.51,35 Z M208.022,35 L208.022,14.98 L204.018,14.98 L204.018,35 L208.022,35 L208.022,35 Z M225.27,19.628 L225.746,15.512 C224.542,14.98 223.198,14.728 221.798,14.728 C208.246,14.728 208.218,35.056 221.798,35.056 C223.198,35.056 224.962,34.72 226.194,34.216 L225.662,30.072 C224.906,30.464 223.534,30.968 221.798,30.968 C213.874,30.968 213.874,18.76 221.798,18.76 C223.534,18.76 224.514,19.236 225.27,19.628 L225.27,19.628 Z" id="INFOGRAPHIC-Copy" fill="#2C96B9" sketch:type="MSShapeGroup"></path>
                <path d="M51.098,33 L51.098,12.98 L47.094,12.98 L47.094,33 L51.098,33 L51.098,33 Z M59.61,22.108 L69.746,33.42 L70.81,33.42 L70.81,13.008 L66.778,13.008 L66.778,24.32 L56.67,12.56 L55.606,12.56 L55.606,33 L59.61,33 L59.61,22.108 Z M85.314,16.984 L85.314,12.98 L75.318,12.98 L75.318,33 L79.322,33 L79.322,24.992 L84.418,24.992 L84.418,20.988 L79.322,20.988 L79.322,16.984 L85.314,16.984 Z M98.25,33.28 C112.026,33.28 112.026,12.644 98.25,12.644 C84.474,12.644 84.474,33.28 98.25,33.28 L98.25,33.28 Z M98.25,29.136 C90.242,29.136 90.242,16.76 98.25,16.76 C106.258,16.76 106.258,29.136 98.25,29.136 L98.25,29.136 Z M126.782,31.768 L126.782,22.976 L122.722,22.976 L122.722,28.996 C122.358,29.052 121.966,29.108 121.602,29.108 C113.874,29.108 113.51,17.152 121.602,16.872 C123.73,16.816 125.018,17.264 125.802,17.6 L126.278,13.54 C125.914,13.428 123.982,12.728 121.602,12.812 C107.714,13.316 108.386,33.112 121.602,33.112 C123.506,33.112 125.242,32.636 126.782,31.768 L126.782,31.768 Z M145.682,33 L141.034,24.74 C146.914,23.032 146.214,12.98 139.074,12.98 L131.178,12.98 L131.178,33 L135.182,33 L135.182,25.356 L137.114,25.356 L141.146,33 L145.682,33 Z M135.182,16.984 L138.71,16.984 C141.426,16.984 141.426,21.464 138.71,21.464 L135.182,21.464 L135.182,16.984 Z M146.55,33 L151.086,33 L151.87,30.844 L158.506,30.844 L159.318,33 L163.826,33 L155.398,12.252 L154.978,12.252 L146.55,33 L146.55,33 Z M153.326,27.092 L155.202,21.884 L157.022,27.092 L153.326,27.092 L153.326,27.092 Z M170.63,33 L170.63,25.356 L174.494,25.356 C182.25,25.356 182.278,13.008 174.494,13.008 L166.626,13.008 L166.626,33 L170.63,33 L170.63,33 Z M170.63,21.464 L170.63,16.984 L174.158,16.984 C176.846,16.984 176.846,21.464 174.158,21.464 L170.63,21.464 L170.63,21.464 Z M197.51,33 L197.51,12.98 L193.506,12.98 L193.506,20.988 L187.514,20.988 L187.514,12.98 L183.51,12.98 L183.51,33 L187.514,33 L187.514,24.992 L193.506,24.992 L193.506,33 L197.51,33 L197.51,33 Z M206.022,33 L206.022,12.98 L202.018,12.98 L202.018,33 L206.022,33 L206.022,33 Z M223.27,17.628 L223.746,13.512 C222.542,12.98 221.198,12.728 219.798,12.728 C206.246,12.728 206.218,33.056 219.798,33.056 C221.198,33.056 222.962,32.72 224.194,32.216 L223.662,28.072 C222.906,28.464 221.534,28.968 219.798,28.968 C211.874,28.968 211.874,16.76 219.798,16.76 C221.534,16.76 222.514,17.236 223.27,17.628 L223.27,17.628 Z" id="INFOGRAPHIC" fill="#FFFFFF" sketch:type="MSShapeGroup"></path>
            </g>
            <g id="Group-Copy-10" sketch:type="MSLayerGroup" transform="translate(284.000000, 6.000000) scale(-1, 1) translate(-284.000000, -6.000000) translate(273.000000, 0.000000)">
                <rect id="Rectangle-445" fill="#2EBAC4" sketch:type="MSShapeGroup" x="3" y="4" width="6" height="7"></rect>
                <path d="M0,8 L3,8 L3,11 L0,8 Z" id="Rectangle-447" fill="#E05A9A" sketch:type="MSShapeGroup"></path>
                <path d="M0,8 L3,8 L3,5 L0,8 Z" id="Rectangle-447-Copy" fill="#E05A9A" sketch:type="MSShapeGroup"></path>
                <rect id="Rectangle-446" fill="#2EBAC4" sketch:type="MSShapeGroup" x="10" y="6" width="8" height="6"></rect>
                <rect id="Rectangle-446-Copy-2" fill="#2EBAC4" sketch:type="MSShapeGroup" x="9" y="6" width="2" height="5"></rect>
                <path d="M18,6 L22,6 L18,11 L18,6 Z" id="Rectangle-446-Copy" fill="#2EBAC4" sketch:type="MSShapeGroup"></path>
                <path d="M18,6 L22,6 L18,11 L18,6 Z" id="Rectangle-446-Copy-3" fill="#2EBAC4" sketch:type="MSShapeGroup" transform="translate(20.000000, 8.500000) scale(1, -1) translate(-20.000000, -8.500000) "></path>
                <path d="M10,0 L12,2 L14,0 L16,2 L18,0 L18,6 L10,6 L10,0 Z" id="Rectangle-450" fill="#2EBAC4" sketch:type="MSShapeGroup"></path>
                <rect id="Rectangle-448" fill="#FFFFFF" sketch:type="MSShapeGroup" x="5" y="6" width="2" height="2"></rect>
            </g>
            <path d="M282,26.5 L252,26.5 L252,27.5 L282,27.5 L282,26.5 L282,26.5 Z" id="Shape" fill="#2C96B9" sketch:type="MSShapeGroup"></path>
            <path d="M270,32.5 L252,32.5 L252,33.5 L270,33.5 L270,32.5 L270,32.5 Z" id="Shape" fill="#BE9BCB" sketch:type="MSShapeGroup"></path>
            <path d="M276,29.5 L252,29.5 L252,30.5 L276,30.5 L276,29.5 L276,29.5 Z" id="Shape" fill="#E15A9A" sketch:type="MSShapeGroup"></path>
            <g id="Group-Copy" sketch:type="MSLayerGroup">
                <rect id="Rectangle-445" fill="#2EBAC4" sketch:type="MSShapeGroup" x="3" y="4" width="6" height="7"></rect>
                <path d="M0,8 L3,8 L3,11 L0,8 Z" id="Rectangle-447" fill="#E05A9A" sketch:type="MSShapeGroup"></path>
                <path d="M0,8 L3,8 L3,5 L0,8 Z" id="Rectangle-447-Copy" fill="#E05A9A" sketch:type="MSShapeGroup"></path>
                <rect id="Rectangle-446" fill="#2EBAC4" sketch:type="MSShapeGroup" x="10" y="6" width="8" height="6"></rect>
                <rect id="Rectangle-446-Copy-2" fill="#2EBAC4" sketch:type="MSShapeGroup" x="9" y="6" width="2" height="5"></rect>
                <path d="M18,6 L22,6 L18,11 L18,6 Z" id="Rectangle-446-Copy" fill="#2EBAC4" sketch:type="MSShapeGroup"></path>
                <path d="M18,6 L22,6 L18,11 L18,6 Z" id="Rectangle-446-Copy-3" fill="#2EBAC4" sketch:type="MSShapeGroup" transform="translate(20.000000, 8.500000) scale(1, -1) translate(-20.000000, -8.500000) "></path>
                <path d="M10,0 L12,2 L14,0 L16,2 L18,0 L18,6 L10,6 L10,0 Z" id="Rectangle-450" fill="#2EBAC4" sketch:type="MSShapeGroup"></path>
                <rect id="Rectangle-448" fill="#FFFFFF" sketch:type="MSShapeGroup" x="5" y="6" width="2" height="2"></rect>
            </g>
        </g>
    </g>
</svg>