<?xml version="1.0" encoding="UTF-8" standalone="no"?>
<svg width="18px" height="9px" viewBox="0 0 18 9" version="1.1" xmlns="http://www.w3.org/2000/svg" xmlns:xlink="http://www.w3.org/1999/xlink" xmlns:sketch="http://www.bohemiancoding.com/sketch/ns">
    <!-- Generator: Sketch 3.3.2 (12043) - http://www.bohemiancoding.com/sketch -->
    <title>interview-dots</title>
    <desc>Created with Sketch.</desc>
    <defs></defs>
    <g id="Page-1" stroke="none" stroke-width="1" fill="none" fill-rule="evenodd" sketch:type="MSPage">
        <g id="interview-dots" sketch:type="MSArtboardGroup">
            <path d="M16.5834951,5.67330097 C16.6271361,6.45883888 16.6489563,6.9534294 16.6489563,7.15708738 C16.6489563,8.13173626 16.3289271,8.6190534 15.6888592,8.6190534 C15.3979193,8.6190534 14.6633069,8.38630492 13.485,7.92080097 C12.3066931,8.38630492 11.5720807,8.6190534 11.2811408,8.6190534 C10.6410729,8.6190534 10.3210437,8.13173626 10.3210437,7.15708738 C10.3210437,6.9534294 10.3428639,6.45883888 10.3865049,5.67330097 C9.45549696,4.52408811 8.99,3.78947571 8.99,3.46944175 C8.99,3.0621258 9.27366221,2.74209663 9.84099515,2.50934466 C10.0446531,2.42206267 10.6192509,2.26204809 11.5648058,2.02929612 C12.0303098,1.3019462 12.2994252,0.887362969 12.3721602,0.785533981 C12.7649291,0.261842042 13.135872,0 13.485,0 C13.819581,0 14.1977972,0.269115432 14.6196602,0.807354369 L15.4051942,2.02929612 C16.3507491,2.26204809 16.9253469,2.42206267 17.1290049,2.50934466 C17.6963378,2.74209663 17.98,3.0621258 17.98,3.46944175 C17.98,3.78947571 17.514503,4.52408811 16.5834951,5.67330097 L16.5834951,5.67330097 Z" id="*" fill="#6F64B5" sketch:type="MSShapeGroup"></path>
            <path d="M7.59349515,5.67330097 C7.63713614,6.45883888 7.65895631,6.9534294 7.65895631,7.15708738 C7.65895631,8.13173626 7.33892715,8.6190534 6.69885922,8.6190534 C6.40791926,8.6190534 5.67330686,8.38630492 4.495,7.92080097 C3.31669314,8.38630492 2.58208074,8.6190534 2.29114078,8.6190534 C1.65107285,8.6190534 1.33104369,8.13173626 1.33104369,7.15708738 C1.33104369,6.9534294 1.35286386,6.45883888 1.39650485,5.67330097 C0.465496963,4.52408811 0,3.78947571 0,3.46944175 C0,3.0621258 0.283662212,2.74209663 0.850995146,2.50934466 C1.05465312,2.42206267 1.62925094,2.26204809 2.57480583,2.02929612 C3.04030977,1.3019462 3.3094252,0.887362969 3.38216019,0.785533981 C3.77492915,0.261842042 4.14587204,0 4.495,0 C4.82958096,0 5.20779724,0.269115432 5.62966019,0.807354369 L6.41519417,2.02929612 C7.36074906,2.26204809 7.93534688,2.42206267 8.13900485,2.50934466 C8.70633779,2.74209663 8.99,3.0621258 8.99,3.46944175 C8.99,3.78947571 8.52450304,4.52408811 7.59349515,5.67330097 L7.59349515,5.67330097 Z" id="*-copy" fill="#B7BC94" sketch:type="MSShapeGroup"></path>
        </g>
    </g>
</svg>